<svg class="icon site-logo" xmlns="http://www.w3.org/2000/svg" viewBox="0 0 900 383">
  <title>Kith Logo</title>
  <path d="M0,191.5V383H900V0H0Zm117-77c0,28.3.3,51.5.8,51.5s18.2-23.2,39.6-51.5L196.3,63h30.9c16.9,0,30.8.2,30.8.5s-16.4,22.2-36.4,48.7l-36.5,48.2,1.6,3c.9,1.7,19.8,37.4,42,79.4S269,319.3,269,319.5s-13.6.4-30.2.3l-30.1-.3-30.1-57.7c-16.6-31.8-30.4-57.7-30.7-57.5s-7.5,8.7-15.7,19.2l-15.1,19-.1,38.7V320H63V63h54Zm252,77V320H315V63h54ZM596,86v23H530V320H476V109H411V63H596Zm98,26.5V162h89V63h54V320H782V212H694V320H640V63h54Z"/>
</svg>